<?xml version="1.0" standalone="no"?>
<!DOCTYPE svg PUBLIC "-//W3C//DTD SVG 20010904//EN"
 "http://www.w3.org/TR/2001/REC-SVG-20010904/DTD/svg10.dtd">
<svg version="1.0" xmlns="http://www.w3.org/2000/svg"
 width="700.000000pt" height="700.000000pt" viewBox="0 0 700.000000 700.000000"
 preserveAspectRatio="xMidYMid meet">
<metadata>
Created by potrace 1.11, written by Peter Selinger 2001-2013
</metadata>
<g transform="translate(0.000000,700.000000) scale(0.100000,-0.100000)"
fill="#000000" stroke="none">
<path d="M3350 6994 c-351 -20 -667 -79 -973 -184 -926 -315 -1686 -1012
-2077 -1904 -362 -826 -393 -1752 -85 -2599 423 -1167 1459 -2038 2680 -2251
278 -48 731 -66 960 -38 483 61 855 172 1243 373 686 354 1223 907 1557 1602
495 1030 451 2248 -116 3239 l-51 90 -287 -285 c-254 -252 -291 -285 -331
-296 -37 -10 -78 -10 -215 3 -93 8 -170 14 -172 12 -2 -1 25 -52 58 -112 141
-252 227 -500 276 -799 25 -155 25 -534 0 -690 -84 -513 -313 -960 -674 -1317
-465 -461 -1069 -697 -1718 -675 -361 13 -659 89 -980 252 -230 116 -386 228
-579 415 -358 348 -587 785 -677 1297 -31 174 -34 549 -6 718 89 532 316 970
695 1337 195 189 372 312 625 433 451 216 968 279 1467 178 230 -46 503 -149
695 -262 48 -28 89 -50 91 -48 2 2 -3 78 -11 171 -15 169 -14 197 12 251 8 17
139 154 290 306 l275 276 -69 40 c-327 194 -760 352 -1143 418 -228 39 -556
60 -760 49z"/>
<path d="M4460 4745 c-179 -179 -329 -325 -333 -325 -5 0 -34 15 -65 33 -257
148 -549 188 -843 113 -381 -96 -692 -412 -790 -800 -33 -127 -37 -351 -10
-484 74 -358 317 -655 651 -796 463 -195 981 -64 1296 327 172 215 263 522
234 793 -15 145 -49 258 -120 399 l-60 120 331 331 c345 345 344 344 266 344
-60 0 -111 22 -153 64 -45 44 -64 93 -64 164 0 23 -3 42 -8 42 -4 0 -153 -146
-332 -325z"/>
</g>
</svg>
